<mxfile host="app.diagrams.net" modified="2021-07-31T20:53:05.010Z" agent="5.0 (Macintosh)" etag="TCmWvMcqlS-MTQHCSdsF" version="14.9.3" type="github">
  <diagram id="dI8Z4wPohuPnjsctlPrf" name="Page-1">
    <mxGraphModel dx="914" dy="626" grid="0" gridSize="10" guides="1" tooltips="1" connect="1" arrows="0" fold="1" page="1" pageScale="1" pageWidth="1169" pageHeight="827" background="#ffffff" math="0" shadow="0">
      <root>
        <mxCell id="0" />
        <mxCell id="1" parent="0" />
        <mxCell id="Cg2wbslkKcuUpNjyLaXX-5" value="Q" style="rounded=0;whiteSpace=wrap;html=1;fontSize=16;shadow=0;sketch=0;" parent="1" vertex="1">
          <mxGeometry x="644" y="23" width="40" height="40" as="geometry" />
        </mxCell>
        <mxCell id="Cg2wbslkKcuUpNjyLaXX-1" value="B" style="rounded=0;whiteSpace=wrap;html=1;fontSize=16;shadow=0;sketch=0;" parent="1" vertex="1">
          <mxGeometry x="484" y="23" width="40" height="40" as="geometry" />
        </mxCell>
        <mxCell id="LZO36vIUFyBDVAd05VLG-187" value="&lt;span style=&quot;font-size: 16px&quot;&gt;1&lt;/span&gt;" style="rounded=0;whiteSpace=wrap;html=1;fontSize=18;shadow=0;sketch=0;" parent="1" vertex="1">
          <mxGeometry x="324" y="498" width="40" height="40" as="geometry" />
        </mxCell>
        <mxCell id="LZO36vIUFyBDVAd05VLG-324" value="&lt;span style=&quot;font-size: 16px&quot;&gt;2&lt;/span&gt;" style="rounded=0;whiteSpace=wrap;html=1;fontSize=18;shadow=0;sketch=0;" parent="1" vertex="1">
          <mxGeometry x="364" y="492" width="40" height="40" as="geometry" />
        </mxCell>
        <mxCell id="LZO36vIUFyBDVAd05VLG-325" value="&lt;span style=&quot;font-size: 16px&quot;&gt;3&lt;/span&gt;" style="rounded=0;whiteSpace=wrap;html=1;fontSize=18;shadow=0;sketch=0;" parent="1" vertex="1">
          <mxGeometry x="404" y="498" width="40" height="40" as="geometry" />
        </mxCell>
        <mxCell id="LZO36vIUFyBDVAd05VLG-135" value="" style="rounded=0;whiteSpace=wrap;html=1;fontSize=18;shadow=0;sketch=0;" parent="1" vertex="1">
          <mxGeometry x="444" y="508" width="40" height="40" as="geometry" />
        </mxCell>
        <mxCell id="LZO36vIUFyBDVAd05VLG-184" value="%" style="rounded=0;whiteSpace=wrap;html=1;fontSize=18;shadow=0;sketch=0;" parent="1" vertex="1">
          <mxGeometry x="284" y="508" width="40" height="40" as="geometry" />
        </mxCell>
        <mxCell id="LZO36vIUFyBDVAd05VLG-204" value="&lt;span style=&quot;font-size: 16px&quot;&gt;0&lt;/span&gt;" style="rounded=0;whiteSpace=wrap;html=1;fontSize=18;shadow=0;sketch=0;" parent="1" vertex="1">
          <mxGeometry x="314" y="552" width="40" height="40" as="geometry" />
        </mxCell>
        <mxCell id="LZO36vIUFyBDVAd05VLG-213" value="&lt;span style=&quot;font-size: 18px&quot;&gt;,&lt;/span&gt;" style="rounded=0;whiteSpace=wrap;html=1;fontSize=20;shadow=0;sketch=0;" parent="1" vertex="1">
          <mxGeometry x="274" y="562" width="40" height="40" as="geometry" />
        </mxCell>
        <mxCell id="LZO36vIUFyBDVAd05VLG-262" value="" style="rounded=0;whiteSpace=wrap;html=1;fontSize=8;shadow=0;sketch=0;" parent="1" vertex="1">
          <mxGeometry x="174" y="552" width="40" height="40" as="geometry" />
        </mxCell>
        <mxCell id="LZO36vIUFyBDVAd05VLG-263" value="&lt;span&gt;&amp;nbsp;&lt;/span&gt;&lt;span style=&quot;font-size: 20px&quot;&gt;X&lt;/span&gt;" style="rounded=0;whiteSpace=wrap;html=1;fontSize=8;shadow=0;sketch=0;" parent="1" vertex="1">
          <mxGeometry x="214" y="562" width="40" height="40" as="geometry" />
        </mxCell>
        <mxCell id="LZO36vIUFyBDVAd05VLG-180" value="&lt;span style=&quot;font-size: 18px&quot;&gt;_&lt;/span&gt;" style="rounded=0;whiteSpace=wrap;html=1;fontSize=8;shadow=0;sketch=0;" parent="1" vertex="1">
          <mxGeometry x="164" y="418" width="40" height="40" as="geometry" />
        </mxCell>
        <mxCell id="LZO36vIUFyBDVAd05VLG-181" value="&lt;span style=&quot;font-size: 18px&quot;&gt;^&lt;/span&gt;" style="rounded=0;whiteSpace=wrap;html=1;fontSize=8;shadow=0;sketch=0;" parent="1" vertex="1">
          <mxGeometry x="204" y="428" width="40" height="40" as="geometry" />
        </mxCell>
        <mxCell id="LZO36vIUFyBDVAd05VLG-295" value="&lt;span style=&quot;font-size: 18px&quot;&gt;+&lt;/span&gt;" style="rounded=0;whiteSpace=wrap;html=1;fontSize=8;shadow=0;sketch=0;" parent="1" vertex="1">
          <mxGeometry x="84" y="418" width="40" height="40" as="geometry" />
        </mxCell>
        <mxCell id="LZO36vIUFyBDVAd05VLG-194" value="&lt;span&gt;&amp;amp;&lt;/span&gt;" style="rounded=0;whiteSpace=wrap;html=1;fontSize=18;shadow=0;sketch=0;" parent="1" vertex="1">
          <mxGeometry x="1084" y="297" width="40" height="40" as="geometry" />
        </mxCell>
        <mxCell id="LZO36vIUFyBDVAd05VLG-1" value="MED&amp;nbsp; &amp;nbsp; &amp;nbsp; &amp;nbsp; &amp;nbsp; &amp;nbsp; &amp;nbsp; &amp;nbsp; WIN" style="rounded=0;whiteSpace=wrap;html=1;fontSize=8;fillColor=#e1d5e7;shadow=0;sketch=0;" parent="1" vertex="1">
          <mxGeometry x="204" y="620" width="120" height="20" as="geometry" />
        </mxCell>
        <mxCell id="LZO36vIUFyBDVAd05VLG-2" value="F" style="rounded=0;whiteSpace=wrap;html=1;fontSize=16;shadow=0;sketch=0;" parent="1" vertex="1">
          <mxGeometry x="364" y="113" width="40" height="40" as="geometry" />
        </mxCell>
        <mxCell id="LZO36vIUFyBDVAd05VLG-3" value="M" style="rounded=0;whiteSpace=wrap;html=1;fontSize=16;shadow=0;sketch=0;" parent="1" vertex="1">
          <mxGeometry x="404" y="103" width="40" height="40" as="geometry" />
        </mxCell>
        <mxCell id="LZO36vIUFyBDVAd05VLG-5" value="V" style="rounded=0;whiteSpace=wrap;html=1;fontSize=16;shadow=0;sketch=0;" parent="1" vertex="1">
          <mxGeometry x="444" y="93" width="40" height="40" as="geometry" />
        </mxCell>
        <mxCell id="LZO36vIUFyBDVAd05VLG-6" value="T" style="rounded=0;whiteSpace=wrap;html=1;fontSize=16;shadow=0;sketch=0;" parent="1" vertex="1">
          <mxGeometry x="524" y="113" width="40" height="40" as="geometry" />
        </mxCell>
        <mxCell id="LZO36vIUFyBDVAd05VLG-7" value="&lt;p style=&quot;line-height: 80%&quot;&gt;S&lt;br&gt;&lt;font style=&quot;font-size: 8px ; line-height: 100%&quot;&gt;SUPER&lt;/font&gt;&lt;/p&gt;" style="rounded=0;whiteSpace=wrap;html=1;fontSize=16;fillColor=#fff2cc;shadow=0;sketch=0;" parent="1" vertex="1">
          <mxGeometry x="364" y="73" width="40" height="40" as="geometry" />
        </mxCell>
        <mxCell id="LZO36vIUFyBDVAd05VLG-8" value="&lt;p style=&quot;line-height: 80%&quot;&gt;H&lt;br&gt;&lt;span style=&quot;font-size: 8px ; line-height: 100%&quot;&gt;ALT&lt;/span&gt;&lt;/p&gt;" style="rounded=0;whiteSpace=wrap;html=1;fontSize=16;fillColor=#fff2cc;shadow=0;sketch=0;" parent="1" vertex="1">
          <mxGeometry x="404" y="63" width="40" height="40" as="geometry" />
        </mxCell>
        <mxCell id="LZO36vIUFyBDVAd05VLG-9" value="&lt;p style=&quot;line-height: 100%&quot;&gt;N&lt;br&gt;&lt;span style=&quot;font-size: 8px ; line-height: 100%&quot;&gt;CTRL&lt;/span&gt;&lt;br&gt;&lt;/p&gt;" style="rounded=0;whiteSpace=wrap;html=1;fontSize=16;fillColor=#fff2cc;shadow=0;sketch=0;" parent="1" vertex="1">
          <mxGeometry x="444" y="53" width="40" height="40" as="geometry" />
        </mxCell>
        <mxCell id="LZO36vIUFyBDVAd05VLG-11" value="," style="rounded=0;whiteSpace=wrap;html=1;fontSize=16;shadow=0;sketch=0;" parent="1" vertex="1">
          <mxGeometry x="524" y="73" width="40" height="40" as="geometry" />
        </mxCell>
        <mxCell id="LZO36vIUFyBDVAd05VLG-12" value="L" style="rounded=0;whiteSpace=wrap;html=1;fontSize=16;shadow=0;sketch=0;" parent="1" vertex="1">
          <mxGeometry x="404" y="23" width="40" height="40" as="geometry" />
        </mxCell>
        <mxCell id="LZO36vIUFyBDVAd05VLG-15" value="C" style="rounded=0;whiteSpace=wrap;html=1;fontSize=16;shadow=0;sketch=0;" parent="1" vertex="1">
          <mxGeometry x="484" y="103" width="40" height="40" as="geometry" />
        </mxCell>
        <mxCell id="LZO36vIUFyBDVAd05VLG-16" value="/" style="rounded=0;whiteSpace=wrap;html=1;fontSize=16;shadow=0;sketch=0;" parent="1" vertex="1">
          <mxGeometry x="524" y="113" width="40" height="40" as="geometry" />
        </mxCell>
        <mxCell id="LZO36vIUFyBDVAd05VLG-17" value="’" style="rounded=0;whiteSpace=wrap;html=1;fontSize=16;shadow=0;sketch=0;" parent="1" vertex="1">
          <mxGeometry x="604" y="33" width="40" height="40" as="geometry" />
        </mxCell>
        <mxCell id="LZO36vIUFyBDVAd05VLG-19" value="U" style="rounded=0;whiteSpace=wrap;html=1;fontSize=16;shadow=0;sketch=0;" parent="1" vertex="1">
          <mxGeometry x="684" y="13" width="40" height="40" as="geometry" />
        </mxCell>
        <mxCell id="LZO36vIUFyBDVAd05VLG-27" value="G" style="rounded=0;whiteSpace=wrap;html=1;fontSize=16;shadow=0;sketch=0;" parent="1" vertex="1">
          <mxGeometry x="604" y="113" width="40" height="40" as="geometry" />
        </mxCell>
        <mxCell id="LZO36vIUFyBDVAd05VLG-43" value="" style="rounded=0;whiteSpace=wrap;html=1;fontSize=8;shadow=0;sketch=0;" parent="1" vertex="1">
          <mxGeometry x="204" y="217" width="40" height="40" as="geometry" />
        </mxCell>
        <mxCell id="LZO36vIUFyBDVAd05VLG-45" value="UNDO" style="rounded=0;whiteSpace=wrap;html=1;fontSize=8;shadow=0;sketch=0;" parent="1" vertex="1">
          <mxGeometry x="44" y="297" width="40" height="40" as="geometry" />
        </mxCell>
        <mxCell id="LZO36vIUFyBDVAd05VLG-46" value="CUT" style="rounded=0;whiteSpace=wrap;html=1;fontSize=8;shadow=0;sketch=0;" parent="1" vertex="1">
          <mxGeometry x="84" y="287" width="40" height="40" as="geometry" />
        </mxCell>
        <mxCell id="LZO36vIUFyBDVAd05VLG-47" value="COPY" style="rounded=0;whiteSpace=wrap;html=1;fontSize=8;shadow=0;sketch=0;" parent="1" vertex="1">
          <mxGeometry x="124" y="277" width="40" height="40" as="geometry" />
        </mxCell>
        <mxCell id="LZO36vIUFyBDVAd05VLG-48" value="PASTE" style="rounded=0;whiteSpace=wrap;html=1;fontSize=8;shadow=0;sketch=0;" parent="1" vertex="1">
          <mxGeometry x="164" y="287" width="40" height="40" as="geometry" />
        </mxCell>
        <mxCell id="LZO36vIUFyBDVAd05VLG-49" value="&lt;span&gt;DEL&lt;/span&gt;" style="rounded=0;whiteSpace=wrap;html=1;fontSize=8;shadow=0;sketch=0;" parent="1" vertex="1">
          <mxGeometry x="204" y="257" width="40" height="40" as="geometry" />
        </mxCell>
        <mxCell id="LZO36vIUFyBDVAd05VLG-50" value="" style="rounded=0;whiteSpace=wrap;html=1;fontSize=8;shadow=0;sketch=0;" parent="1" vertex="1">
          <mxGeometry x="284" y="217" width="40" height="40" as="geometry" />
        </mxCell>
        <mxCell id="LZO36vIUFyBDVAd05VLG-51" value="&amp;nbsp;PG&lt;br&gt;UP" style="rounded=0;whiteSpace=wrap;html=1;fontSize=8;shadow=0;sketch=0;" parent="1" vertex="1">
          <mxGeometry x="324" y="207" width="40" height="40" as="geometry" />
        </mxCell>
        <mxCell id="LZO36vIUFyBDVAd05VLG-52" value="" style="rounded=0;whiteSpace=wrap;html=1;fontSize=8;shadow=0;sketch=0;" parent="1" vertex="1">
          <mxGeometry x="364" y="197" width="40" height="40" as="geometry" />
        </mxCell>
        <mxCell id="LZO36vIUFyBDVAd05VLG-53" value="&lt;span&gt;HOME&lt;/span&gt;" style="rounded=0;whiteSpace=wrap;html=1;fontSize=8;shadow=0;sketch=0;" parent="1" vertex="1">
          <mxGeometry x="404" y="207" width="40" height="40" as="geometry" />
        </mxCell>
        <mxCell id="LZO36vIUFyBDVAd05VLG-54" value="" style="rounded=0;whiteSpace=wrap;html=1;fontSize=8;shadow=0;sketch=0;" parent="1" vertex="1">
          <mxGeometry x="444" y="217" width="40" height="40" as="geometry" />
        </mxCell>
        <mxCell id="LZO36vIUFyBDVAd05VLG-55" value="&lt;span&gt;DELETE&lt;/span&gt;&lt;br&gt;&lt;span&gt;LEFT&lt;/span&gt;" style="rounded=0;whiteSpace=wrap;html=1;fontSize=8;shadow=0;sketch=0;" parent="1" vertex="1">
          <mxGeometry x="284" y="257" width="40" height="40" as="geometry" />
        </mxCell>
        <mxCell id="LZO36vIUFyBDVAd05VLG-56" value="" style="rounded=0;whiteSpace=wrap;html=1;fontSize=8;shadow=0;sketch=0;" parent="1" vertex="1">
          <mxGeometry x="324" y="247" width="40" height="40" as="geometry" />
        </mxCell>
        <mxCell id="LZO36vIUFyBDVAd05VLG-57" value="" style="rounded=0;whiteSpace=wrap;html=1;fontSize=8;shadow=0;sketch=0;" parent="1" vertex="1">
          <mxGeometry x="364" y="237" width="40" height="40" as="geometry" />
        </mxCell>
        <mxCell id="LZO36vIUFyBDVAd05VLG-58" value="" style="rounded=0;whiteSpace=wrap;html=1;fontSize=8;shadow=0;sketch=0;" parent="1" vertex="1">
          <mxGeometry x="404" y="247" width="40" height="40" as="geometry" />
        </mxCell>
        <mxCell id="LZO36vIUFyBDVAd05VLG-59" value="&lt;span&gt;DELETE&lt;/span&gt;&lt;br&gt;&lt;span&gt;RIGHT&lt;/span&gt;" style="rounded=0;whiteSpace=wrap;html=1;fontSize=8;shadow=0;sketch=0;" parent="1" vertex="1">
          <mxGeometry x="444" y="257" width="40" height="40" as="geometry" />
        </mxCell>
        <mxCell id="LZO36vIUFyBDVAd05VLG-60" value="" style="rounded=0;whiteSpace=wrap;html=1;fontSize=8;shadow=0;sketch=0;" parent="1" vertex="1">
          <mxGeometry x="284" y="297" width="40" height="40" as="geometry" />
        </mxCell>
        <mxCell id="LZO36vIUFyBDVAd05VLG-61" value="&lt;span style=&quot;font-size: 8px;&quot;&gt;PG&lt;/span&gt;&lt;br style=&quot;font-size: 8px;&quot;&gt;&lt;span style=&quot;font-size: 8px;&quot;&gt;DOWN&lt;/span&gt;" style="rounded=0;whiteSpace=wrap;html=1;fontSize=8;shadow=0;sketch=0;" parent="1" vertex="1">
          <mxGeometry x="324" y="287" width="40" height="40" as="geometry" />
        </mxCell>
        <mxCell id="LZO36vIUFyBDVAd05VLG-62" value="" style="rounded=0;whiteSpace=wrap;html=1;fontSize=18;shadow=0;sketch=0;" parent="1" vertex="1">
          <mxGeometry x="364" y="277" width="40" height="40" as="geometry" />
        </mxCell>
        <mxCell id="LZO36vIUFyBDVAd05VLG-63" value="&lt;span&gt;END&lt;/span&gt;" style="rounded=0;whiteSpace=wrap;html=1;fontSize=8;shadow=0;sketch=0;" parent="1" vertex="1">
          <mxGeometry x="404" y="287" width="40" height="40" as="geometry" />
        </mxCell>
        <mxCell id="LZO36vIUFyBDVAd05VLG-64" value="" style="rounded=0;whiteSpace=wrap;html=1;fontSize=8;shadow=0;sketch=0;" parent="1" vertex="1">
          <mxGeometry x="444" y="297" width="40" height="40" as="geometry" />
        </mxCell>
        <mxCell id="LZO36vIUFyBDVAd05VLG-65" value="&lt;span&gt;CAPS&lt;/span&gt;&lt;br&gt;&lt;span&gt;LOCK&lt;/span&gt;" style="rounded=0;whiteSpace=wrap;html=1;fontSize=8;shadow=0;sketch=0;" parent="1" vertex="1">
          <mxGeometry x="274" y="351" width="40" height="40" as="geometry" />
        </mxCell>
        <mxCell id="LZO36vIUFyBDVAd05VLG-98" value="slack" style="rounded=0;whiteSpace=wrap;html=1;fontSize=8;shadow=0;sketch=0;" parent="1" vertex="1">
          <mxGeometry x="924" y="640" width="40" height="40" as="geometry" />
        </mxCell>
        <mxCell id="LZO36vIUFyBDVAd05VLG-99" value="" style="rounded=0;whiteSpace=wrap;html=1;fontSize=8;shadow=0;sketch=0;" parent="1" vertex="1">
          <mxGeometry x="1084" y="680" width="40" height="40" as="geometry" />
        </mxCell>
        <mxCell id="LZO36vIUFyBDVAd05VLG-104" value="finder" style="rounded=0;whiteSpace=wrap;html=1;fontSize=8;shadow=0;sketch=0;" parent="1" vertex="1">
          <mxGeometry x="924" y="680" width="40" height="40" as="geometry" />
        </mxCell>
        <mxCell id="LZO36vIUFyBDVAd05VLG-105" value="&lt;span&gt;datagrip&lt;/span&gt;" style="rounded=0;whiteSpace=wrap;html=1;fontSize=8;shadow=0;sketch=0;" parent="1" vertex="1">
          <mxGeometry x="924" y="720" width="40" height="40" as="geometry" />
        </mxCell>
        <mxCell id="LZO36vIUFyBDVAd05VLG-106" value="teams" style="rounded=0;whiteSpace=wrap;html=1;fontSize=8;shadow=0;sketch=0;" parent="1" vertex="1">
          <mxGeometry x="1084" y="640" width="40" height="40" as="geometry" />
        </mxCell>
        <mxCell id="LZO36vIUFyBDVAd05VLG-119" value="" style="rounded=0;whiteSpace=wrap;html=1;fontSize=8;shadow=0;sketch=0;" parent="1" vertex="1">
          <mxGeometry x="954" y="764" width="40" height="40" as="geometry" />
        </mxCell>
        <mxCell id="LZO36vIUFyBDVAd05VLG-120" value="" style="rounded=0;whiteSpace=wrap;html=1;fontSize=8;shadow=0;sketch=0;" parent="1" vertex="1">
          <mxGeometry x="914" y="774" width="40" height="40" as="geometry" />
        </mxCell>
        <mxCell id="LZO36vIUFyBDVAd05VLG-122" value="members" style="rounded=0;whiteSpace=wrap;html=1;fontSize=8;shadow=0;sketch=0;" parent="1" vertex="1">
          <mxGeometry x="814" y="764" width="40" height="40" as="geometry" />
        </mxCell>
        <mxCell id="LZO36vIUFyBDVAd05VLG-123" value="proj" style="rounded=0;whiteSpace=wrap;html=1;fontSize=8;shadow=0;sketch=0;" parent="1" vertex="1">
          <mxGeometry x="854" y="774" width="40" height="40" as="geometry" />
        </mxCell>
        <mxCell id="LZO36vIUFyBDVAd05VLG-124" value="&lt;span&gt;$&lt;/span&gt;" style="rounded=0;whiteSpace=wrap;html=1;fontSize=18;shadow=0;sketch=0;" parent="1" vertex="1">
          <mxGeometry x="684" y="217" width="40" height="40" as="geometry" />
        </mxCell>
        <mxCell id="LZO36vIUFyBDVAd05VLG-125" value="&lt;span&gt;#&lt;/span&gt;" style="rounded=0;whiteSpace=wrap;html=1;fontSize=18;shadow=0;sketch=0;" parent="1" vertex="1">
          <mxGeometry x="1084" y="217" width="40" height="40" as="geometry" />
        </mxCell>
        <mxCell id="LZO36vIUFyBDVAd05VLG-127" value="]" style="rounded=0;whiteSpace=wrap;html=1;fontSize=18;shadow=0;sketch=0;" parent="1" vertex="1">
          <mxGeometry x="724" y="287" width="40" height="40" as="geometry" />
        </mxCell>
        <mxCell id="LZO36vIUFyBDVAd05VLG-128" value="&lt;span&gt;?&lt;/span&gt;" style="rounded=0;whiteSpace=wrap;html=1;fontSize=18;shadow=0;sketch=0;" parent="1" vertex="1">
          <mxGeometry x="844" y="297" width="40" height="40" as="geometry" />
        </mxCell>
        <mxCell id="LZO36vIUFyBDVAd05VLG-129" value="&lt;span style=&quot;font-family: &amp;#34;helvetica&amp;#34;&quot;&gt;@&lt;/span&gt;" style="rounded=0;whiteSpace=wrap;html=1;fontSize=18;shadow=0;sketch=0;" parent="1" vertex="1">
          <mxGeometry x="684" y="257" width="40" height="40" as="geometry" />
        </mxCell>
        <mxCell id="LZO36vIUFyBDVAd05VLG-130" value="&lt;span&gt;[&lt;/span&gt;" style="rounded=0;whiteSpace=wrap;html=1;fontSize=18;gradientDirection=east;shadow=0;sketch=0;" parent="1" vertex="1">
          <mxGeometry x="724" y="247" width="40" height="40" as="geometry" />
        </mxCell>
        <mxCell id="LZO36vIUFyBDVAd05VLG-131" value="&lt;span&gt;{&lt;/span&gt;" style="rounded=0;whiteSpace=wrap;html=1;fontSize=18;gradientDirection=east;shadow=0;sketch=0;" parent="1" vertex="1">
          <mxGeometry x="764" y="237" width="40" height="40" as="geometry" />
        </mxCell>
        <mxCell id="LZO36vIUFyBDVAd05VLG-132" value="&lt;span&gt;(&lt;/span&gt;" style="rounded=0;whiteSpace=wrap;html=1;fontSize=18;gradientDirection=east;shadow=0;sketch=0;" parent="1" vertex="1">
          <mxGeometry x="804" y="247" width="40" height="40" as="geometry" />
        </mxCell>
        <mxCell id="LZO36vIUFyBDVAd05VLG-134" value="&lt;span style=&quot;font-size: 16px&quot;&gt;5&lt;/span&gt;" style="rounded=0;whiteSpace=wrap;html=1;fontSize=18;shadow=0;sketch=0;" parent="1" vertex="1">
          <mxGeometry x="364" y="453" width="40" height="40" as="geometry" />
        </mxCell>
        <mxCell id="LZO36vIUFyBDVAd05VLG-136" value="" style="rounded=0;whiteSpace=wrap;html=1;fontSize=18;shadow=0;sketch=0;" parent="1" vertex="1">
          <mxGeometry x="444" y="428" width="40" height="40" as="geometry" />
        </mxCell>
        <mxCell id="LZO36vIUFyBDVAd05VLG-137" value="&lt;span&gt;.&lt;/span&gt;" style="rounded=0;whiteSpace=wrap;html=1;fontSize=18;shadow=0;sketch=0;" parent="1" vertex="1">
          <mxGeometry x="444" y="468" width="40" height="40" as="geometry" />
        </mxCell>
        <mxCell id="LZO36vIUFyBDVAd05VLG-139" value="&lt;span style=&quot;color: rgb(77 , 81 , 86) ; font-family: &amp;#34;arial&amp;#34; , sans-serif ; font-size: 14px ; text-align: left ; background-color: rgb(255 , 255 , 255)&quot;&gt;\&lt;/span&gt;" style="rounded=0;whiteSpace=wrap;html=1;fontSize=18;shadow=0;sketch=0;" parent="1" vertex="1">
          <mxGeometry x="924" y="217" width="40" height="40" as="geometry" />
        </mxCell>
        <mxCell id="LZO36vIUFyBDVAd05VLG-140" value="&lt;span&gt;`&lt;/span&gt;" style="rounded=0;whiteSpace=wrap;html=1;fontSize=18;shadow=0;sketch=0;" parent="1" vertex="1">
          <mxGeometry x="964" y="207" width="40" height="40" as="geometry" />
        </mxCell>
        <mxCell id="LZO36vIUFyBDVAd05VLG-142" value="&lt;span&gt;&#39;&lt;/span&gt;" style="rounded=0;whiteSpace=wrap;html=1;fontSize=18;shadow=0;sketch=0;" parent="1" vertex="1">
          <mxGeometry x="1044" y="207" width="40" height="40" as="geometry" />
        </mxCell>
        <mxCell id="LZO36vIUFyBDVAd05VLG-144" value="&lt;span&gt;&quot;&lt;/span&gt;" style="rounded=0;whiteSpace=wrap;html=1;fontSize=18;shadow=0;sketch=0;" parent="1" vertex="1">
          <mxGeometry x="1004" y="197" width="40" height="40" as="geometry" />
        </mxCell>
        <mxCell id="LZO36vIUFyBDVAd05VLG-145" value="&lt;span&gt;%&lt;/span&gt;" style="rounded=0;whiteSpace=wrap;html=1;fontSize=18;shadow=0;sketch=0;" parent="1" vertex="1">
          <mxGeometry x="924" y="297" width="40" height="40" as="geometry" />
        </mxCell>
        <mxCell id="LZO36vIUFyBDVAd05VLG-149" value="&lt;span&gt;/&lt;/span&gt;" style="rounded=0;whiteSpace=wrap;html=1;fontSize=18;shadow=0;sketch=0;" parent="1" vertex="1">
          <mxGeometry x="924" y="257" width="40" height="40" as="geometry" />
        </mxCell>
        <mxCell id="LZO36vIUFyBDVAd05VLG-150" value="" style="rounded=0;whiteSpace=wrap;html=1;fontSize=18;shadow=0;sketch=0;" parent="1" vertex="1">
          <mxGeometry x="914" y="351" width="40" height="40" as="geometry" />
        </mxCell>
        <mxCell id="LZO36vIUFyBDVAd05VLG-153" value="&lt;span style=&quot;font-size: 18px&quot;&gt;&amp;lt;&lt;/span&gt;" style="rounded=0;whiteSpace=wrap;html=1;fontSize=8;shadow=0;sketch=0;" parent="1" vertex="1">
          <mxGeometry x="813" y="341" width="42" height="40" as="geometry" />
        </mxCell>
        <mxCell id="LZO36vIUFyBDVAd05VLG-154" value="&lt;span style=&quot;font-size: 18px&quot;&gt;&amp;gt;&lt;/span&gt;" style="rounded=0;whiteSpace=wrap;html=1;fontSize=8;shadow=0;sketch=0;" parent="1" vertex="1">
          <mxGeometry x="855" y="351" width="40" height="40" as="geometry" />
        </mxCell>
        <mxCell id="LZO36vIUFyBDVAd05VLG-155" value="BASE" style="rounded=0;whiteSpace=wrap;html=1;fontSize=8;fillColor=#d5e8d4;shadow=0;sketch=0;" parent="1" vertex="1">
          <mxGeometry x="524" y="13" width="120" height="20" as="geometry" />
        </mxCell>
        <mxCell id="LZO36vIUFyBDVAd05VLG-156" value="NAV" style="rounded=0;whiteSpace=wrap;html=1;fontSize=8;fillColor=#d5e8d4;shadow=0;sketch=0;" parent="1" vertex="1">
          <mxGeometry x="204" y="197" width="120" height="20" as="geometry" />
        </mxCell>
        <mxCell id="LZO36vIUFyBDVAd05VLG-158" value="SYM" style="rounded=0;whiteSpace=wrap;html=1;fontSize=8;fillColor=#d5e8d4;shadow=0;sketch=0;" parent="1" vertex="1">
          <mxGeometry x="844" y="197" width="120" height="20" as="geometry" />
        </mxCell>
        <mxCell id="LZO36vIUFyBDVAd05VLG-159" value="DEV&amp;nbsp; &amp;nbsp; &amp;nbsp; &amp;nbsp; &amp;nbsp; &amp;nbsp; &amp;nbsp; &amp;nbsp; &amp;nbsp;APP" style="rounded=0;whiteSpace=wrap;html=1;fontSize=8;fillColor=#e1d5e7;shadow=0;sketch=0;" parent="1" vertex="1">
          <mxGeometry x="844" y="620" width="120" height="20" as="geometry" />
        </mxCell>
        <mxCell id="LZO36vIUFyBDVAd05VLG-178" value="&lt;span&gt;!&lt;/span&gt;" style="rounded=0;whiteSpace=wrap;html=1;fontSize=18;shadow=0;sketch=0;" parent="1" vertex="1">
          <mxGeometry x="1044" y="287" width="40" height="40" as="geometry" />
        </mxCell>
        <mxCell id="LZO36vIUFyBDVAd05VLG-179" value=")" style="rounded=0;whiteSpace=wrap;html=1;fontSize=18;shadow=0;sketch=0;" parent="1" vertex="1">
          <mxGeometry x="804" y="287" width="40" height="40" as="geometry" />
        </mxCell>
        <mxCell id="LZO36vIUFyBDVAd05VLG-182" value="&lt;span&gt;=&lt;/span&gt;" style="rounded=0;whiteSpace=wrap;html=1;fontSize=18;shadow=0;sketch=0;" parent="1" vertex="1">
          <mxGeometry x="1044" y="247" width="40" height="40" as="geometry" />
        </mxCell>
        <mxCell id="LZO36vIUFyBDVAd05VLG-183" value="&lt;span&gt;-&lt;/span&gt;" style="rounded=0;whiteSpace=wrap;html=1;fontSize=18;shadow=0;sketch=0;" parent="1" vertex="1">
          <mxGeometry x="764" y="197" width="40" height="40" as="geometry" />
        </mxCell>
        <mxCell id="LZO36vIUFyBDVAd05VLG-185" value="&lt;span&gt;+&lt;/span&gt;" style="rounded=0;whiteSpace=wrap;html=1;fontSize=18;shadow=0;sketch=0;" parent="1" vertex="1">
          <mxGeometry x="724" y="207" width="40" height="40" as="geometry" />
        </mxCell>
        <mxCell id="LZO36vIUFyBDVAd05VLG-186" value="&lt;span&gt;~&lt;/span&gt;" style="rounded=0;whiteSpace=wrap;html=1;fontSize=18;shadow=0;sketch=0;" parent="1" vertex="1">
          <mxGeometry x="684" y="297" width="40" height="40" as="geometry" />
        </mxCell>
        <mxCell id="LZO36vIUFyBDVAd05VLG-189" value="&lt;span&gt;_&lt;/span&gt;" style="rounded=0;whiteSpace=wrap;html=1;fontSize=18;shadow=0;sketch=0;" parent="1" vertex="1">
          <mxGeometry x="804" y="207" width="40" height="40" as="geometry" />
        </mxCell>
        <mxCell id="LZO36vIUFyBDVAd05VLG-190" value="}" style="rounded=0;whiteSpace=wrap;html=1;fontSize=18;shadow=0;sketch=0;" parent="1" vertex="1">
          <mxGeometry x="764" y="277" width="40" height="40" as="geometry" />
        </mxCell>
        <mxCell id="LZO36vIUFyBDVAd05VLG-191" value="" style="rounded=0;whiteSpace=wrap;html=1;fontSize=18;shadow=0;sketch=0;" parent="1" vertex="1">
          <mxGeometry x="284" y="428" width="40" height="40" as="geometry" />
        </mxCell>
        <mxCell id="LZO36vIUFyBDVAd05VLG-195" value="&lt;span&gt;&amp;nbsp;;&lt;/span&gt;" style="rounded=0;whiteSpace=wrap;html=1;fontSize=18;shadow=0;sketch=0;" parent="1" vertex="1">
          <mxGeometry x="1004" y="277" width="40" height="40" as="geometry" />
        </mxCell>
        <mxCell id="LZO36vIUFyBDVAd05VLG-197" value="&lt;span style=&quot;font-size: 16px&quot;&gt;6&lt;/span&gt;" style="rounded=0;whiteSpace=wrap;html=1;fontSize=18;shadow=0;sketch=0;" parent="1" vertex="1">
          <mxGeometry x="404" y="458" width="40" height="40" as="geometry" />
        </mxCell>
        <mxCell id="LZO36vIUFyBDVAd05VLG-199" value="&lt;span&gt;*&lt;/span&gt;" style="rounded=0;whiteSpace=wrap;html=1;fontSize=18;shadow=0;sketch=0;" parent="1" vertex="1">
          <mxGeometry x="844" y="257" width="40" height="40" as="geometry" />
        </mxCell>
        <mxCell id="LZO36vIUFyBDVAd05VLG-200" value="&lt;span&gt;|&lt;/span&gt;" style="rounded=0;whiteSpace=wrap;html=1;fontSize=18;shadow=0;sketch=0;" parent="1" vertex="1">
          <mxGeometry x="1084" y="257" width="40" height="40" as="geometry" />
        </mxCell>
        <mxCell id="LZO36vIUFyBDVAd05VLG-201" value="&lt;span&gt;:&lt;/span&gt;" style="rounded=0;whiteSpace=wrap;html=1;fontSize=18;shadow=0;sketch=0;" parent="1" vertex="1">
          <mxGeometry x="1004" y="237" width="40" height="40" as="geometry" />
        </mxCell>
        <mxCell id="LZO36vIUFyBDVAd05VLG-212" value="&lt;span style=&quot;font-size: 8px&quot;&gt;&amp;nbsp;&lt;/span&gt;&lt;span&gt;X&lt;/span&gt;" style="rounded=0;whiteSpace=wrap;html=1;fontSize=20;shadow=0;sketch=0;" parent="1" vertex="1">
          <mxGeometry x="954" y="341" width="40" height="40" as="geometry" />
        </mxCell>
        <mxCell id="LZO36vIUFyBDVAd05VLG-216" value="move left" style="rounded=0;whiteSpace=wrap;html=1;fontSize=8;shadow=0;sketch=0;" parent="1" vertex="1">
          <mxGeometry x="284" y="640" width="40" height="40" as="geometry" />
        </mxCell>
        <mxCell id="LZO36vIUFyBDVAd05VLG-217" value="q1" style="rounded=0;whiteSpace=wrap;html=1;fontSize=8;shadow=0;sketch=0;" parent="1" vertex="1">
          <mxGeometry x="324" y="630" width="40" height="40" as="geometry" />
        </mxCell>
        <mxCell id="LZO36vIUFyBDVAd05VLG-218" value="top" style="rounded=0;whiteSpace=wrap;html=1;fontSize=8;shadow=0;sketch=0;" parent="1" vertex="1">
          <mxGeometry x="364" y="620" width="40" height="40" as="geometry" />
        </mxCell>
        <mxCell id="LZO36vIUFyBDVAd05VLG-219" value="q2" style="rounded=0;whiteSpace=wrap;html=1;fontSize=8;shadow=0;sketch=0;" parent="1" vertex="1">
          <mxGeometry x="404" y="630" width="40" height="40" as="geometry" />
        </mxCell>
        <mxCell id="LZO36vIUFyBDVAd05VLG-220" value="move right" style="rounded=0;whiteSpace=wrap;html=1;fontSize=8;shadow=0;sketch=0;" parent="1" vertex="1">
          <mxGeometry x="444" y="640" width="40" height="40" as="geometry" />
        </mxCell>
        <mxCell id="LZO36vIUFyBDVAd05VLG-221" value="&lt;span style=&quot;color: rgb(0 , 0 , 0) ; font-family: &amp;#34;helvetica&amp;#34; ; font-size: 8px ; font-style: normal ; font-weight: 400 ; letter-spacing: normal ; text-align: center ; text-indent: 0px ; text-transform: none ; word-spacing: 0px ; background-color: rgb(248 , 249 , 250) ; display: inline ; float: none&quot;&gt;left two thirds&lt;/span&gt;" style="rounded=0;whiteSpace=wrap;html=1;fontSize=8;shadow=0;sketch=0;" parent="1" vertex="1">
          <mxGeometry x="284" y="680" width="40" height="40" as="geometry" />
        </mxCell>
        <mxCell id="LZO36vIUFyBDVAd05VLG-222" value="left one third" style="rounded=0;whiteSpace=wrap;html=1;fontSize=8;shadow=0;sketch=0;" parent="1" vertex="1">
          <mxGeometry x="284" y="720" width="40" height="40" as="geometry" />
        </mxCell>
        <mxCell id="LZO36vIUFyBDVAd05VLG-223" value="q3" style="rounded=0;whiteSpace=wrap;html=1;fontSize=8;shadow=0;sketch=0;" parent="1" vertex="1">
          <mxGeometry x="324" y="710" width="40" height="40" as="geometry" />
        </mxCell>
        <mxCell id="LZO36vIUFyBDVAd05VLG-224" value="bottom" style="rounded=0;whiteSpace=wrap;html=1;fontSize=8;shadow=0;sketch=0;" parent="1" vertex="1">
          <mxGeometry x="364" y="700" width="40" height="40" as="geometry" />
        </mxCell>
        <mxCell id="LZO36vIUFyBDVAd05VLG-225" value="q4" style="rounded=0;whiteSpace=wrap;html=1;fontSize=8;shadow=0;sketch=0;" parent="1" vertex="1">
          <mxGeometry x="404" y="710" width="40" height="40" as="geometry" />
        </mxCell>
        <mxCell id="LZO36vIUFyBDVAd05VLG-226" value="&lt;span&gt;right one third&lt;/span&gt;" style="rounded=0;whiteSpace=wrap;html=1;fontSize=8;shadow=0;sketch=0;" parent="1" vertex="1">
          <mxGeometry x="444" y="720" width="40" height="40" as="geometry" />
        </mxCell>
        <mxCell id="LZO36vIUFyBDVAd05VLG-227" value="left" style="rounded=0;whiteSpace=wrap;html=1;fontSize=8;shadow=0;sketch=0;" parent="1" vertex="1">
          <mxGeometry x="324" y="670" width="40" height="40" as="geometry" />
        </mxCell>
        <mxCell id="LZO36vIUFyBDVAd05VLG-228" value="full" style="rounded=0;whiteSpace=wrap;html=1;fontSize=8;shadow=0;sketch=0;" parent="1" vertex="1">
          <mxGeometry x="364" y="660" width="40" height="40" as="geometry" />
        </mxCell>
        <mxCell id="LZO36vIUFyBDVAd05VLG-229" value="right" style="rounded=0;whiteSpace=wrap;html=1;fontSize=8;shadow=0;sketch=0;" parent="1" vertex="1">
          <mxGeometry x="404" y="670" width="40" height="40" as="geometry" />
        </mxCell>
        <mxCell id="LZO36vIUFyBDVAd05VLG-230" value="&lt;span style=&quot;font-family: &amp;#34;helvetica&amp;#34;&quot;&gt;right two thirds&lt;/span&gt;" style="rounded=0;whiteSpace=wrap;html=1;fontSize=8;shadow=0;sketch=0;" parent="1" vertex="1">
          <mxGeometry x="444" y="680" width="40" height="40" as="geometry" />
        </mxCell>
        <mxCell id="LZO36vIUFyBDVAd05VLG-231" value="chrome" style="rounded=0;whiteSpace=wrap;html=1;fontSize=8;shadow=0;sketch=0;" parent="1" vertex="1">
          <mxGeometry x="964" y="630" width="40" height="40" as="geometry" />
        </mxCell>
        <mxCell id="LZO36vIUFyBDVAd05VLG-232" value="rider" style="rounded=0;whiteSpace=wrap;html=1;fontSize=8;shadow=0;sketch=0;" parent="1" vertex="1">
          <mxGeometry x="1004" y="620" width="40" height="40" as="geometry" />
        </mxCell>
        <mxCell id="LZO36vIUFyBDVAd05VLG-233" value="source&lt;br&gt;tree" style="rounded=0;whiteSpace=wrap;html=1;fontSize=8;shadow=0;sketch=0;" parent="1" vertex="1">
          <mxGeometry x="1044" y="630" width="40" height="40" as="geometry" />
        </mxCell>
        <mxCell id="LZO36vIUFyBDVAd05VLG-234" value="webstorm" style="rounded=0;whiteSpace=wrap;html=1;fontSize=8;shadow=0;sketch=0;" parent="1" vertex="1">
          <mxGeometry x="1044" y="670" width="40" height="40" as="geometry" />
        </mxCell>
        <mxCell id="LZO36vIUFyBDVAd05VLG-235" value="goland" style="rounded=0;whiteSpace=wrap;html=1;fontSize=8;shadow=0;sketch=0;" parent="1" vertex="1">
          <mxGeometry x="1004" y="660" width="40" height="40" as="geometry" />
        </mxCell>
        <mxCell id="LZO36vIUFyBDVAd05VLG-236" value="iterm" style="rounded=0;whiteSpace=wrap;html=1;fontSize=8;shadow=0;sketch=0;" parent="1" vertex="1">
          <mxGeometry x="964" y="670" width="40" height="40" as="geometry" />
        </mxCell>
        <mxCell id="LZO36vIUFyBDVAd05VLG-238" value="" style="rounded=0;whiteSpace=wrap;html=1;fontSize=8;shadow=0;sketch=0;" parent="1" vertex="1">
          <mxGeometry x="204" y="640" width="40" height="40" as="geometry" />
        </mxCell>
        <mxCell id="LZO36vIUFyBDVAd05VLG-243" value="" style="rounded=0;whiteSpace=wrap;html=1;fontSize=8;shadow=0;sketch=0;" parent="1" vertex="1">
          <mxGeometry x="204" y="720" width="40" height="40" as="geometry" />
        </mxCell>
        <mxCell id="LZO36vIUFyBDVAd05VLG-244" value="" style="rounded=0;whiteSpace=wrap;html=1;fontSize=8;shadow=0;sketch=0;" parent="1" vertex="1">
          <mxGeometry x="174" y="764" width="40" height="40" as="geometry" />
        </mxCell>
        <mxCell id="LZO36vIUFyBDVAd05VLG-245" value="&lt;span&gt;windows&lt;/span&gt;" style="rounded=0;whiteSpace=wrap;html=1;fontSize=8;shadow=0;sketch=0;" parent="1" vertex="1">
          <mxGeometry x="214" y="774" width="40" height="40" as="geometry" />
        </mxCell>
        <mxCell id="LZO36vIUFyBDVAd05VLG-247" value="" style="rounded=0;whiteSpace=wrap;html=1;fontSize=8;shadow=0;sketch=0;" parent="1" vertex="1">
          <mxGeometry x="44" y="680" width="40" height="40" as="geometry" />
        </mxCell>
        <mxCell id="LZO36vIUFyBDVAd05VLG-248" value="&lt;span&gt;vol down&lt;/span&gt;" style="rounded=0;whiteSpace=wrap;html=1;fontSize=8;shadow=0;sketch=0;" parent="1" vertex="1">
          <mxGeometry x="84" y="670" width="40" height="40" as="geometry" />
        </mxCell>
        <mxCell id="LZO36vIUFyBDVAd05VLG-249" value="&lt;span&gt;mute&lt;/span&gt;" style="rounded=0;whiteSpace=wrap;html=1;fontSize=8;shadow=0;sketch=0;" parent="1" vertex="1">
          <mxGeometry x="124" y="660" width="40" height="40" as="geometry" />
        </mxCell>
        <mxCell id="LZO36vIUFyBDVAd05VLG-250" value="" style="rounded=0;whiteSpace=wrap;html=1;fontSize=8;shadow=0;sketch=0;" parent="1" vertex="1">
          <mxGeometry x="204" y="680" width="40" height="40" as="geometry" />
        </mxCell>
        <mxCell id="LZO36vIUFyBDVAd05VLG-251" value="&lt;span&gt;RESET&lt;/span&gt;" style="rounded=0;whiteSpace=wrap;html=1;fontSize=8;shadow=0;sketch=0;" parent="1" vertex="1">
          <mxGeometry x="44" y="640" width="40" height="40" as="geometry" />
        </mxCell>
        <mxCell id="LZO36vIUFyBDVAd05VLG-252" value="" style="rounded=0;whiteSpace=wrap;html=1;fontSize=8;shadow=0;sketch=0;" parent="1" vertex="1">
          <mxGeometry x="84" y="630" width="40" height="40" as="geometry" />
        </mxCell>
        <mxCell id="LZO36vIUFyBDVAd05VLG-253" value="" style="rounded=0;whiteSpace=wrap;html=1;fontSize=8;shadow=0;sketch=0;" parent="1" vertex="1">
          <mxGeometry x="124" y="620" width="40" height="40" as="geometry" />
        </mxCell>
        <mxCell id="LZO36vIUFyBDVAd05VLG-254" value="" style="rounded=0;whiteSpace=wrap;html=1;fontSize=8;shadow=0;sketch=0;" parent="1" vertex="1">
          <mxGeometry x="164" y="630" width="40" height="40" as="geometry" />
        </mxCell>
        <mxCell id="LZO36vIUFyBDVAd05VLG-255" value="prev win" style="rounded=0;whiteSpace=wrap;html=1;fontSize=8;shadow=0;sketch=0;" parent="1" vertex="1">
          <mxGeometry x="274" y="774" width="40" height="40" as="geometry" />
        </mxCell>
        <mxCell id="LZO36vIUFyBDVAd05VLG-256" value="next win" style="rounded=0;whiteSpace=wrap;html=1;fontSize=8;shadow=0;sketch=0;" parent="1" vertex="1">
          <mxGeometry x="314" y="764" width="40" height="40" as="geometry" />
        </mxCell>
        <mxCell id="LZO36vIUFyBDVAd05VLG-257" value="&lt;span&gt;vol up&lt;/span&gt;" style="rounded=0;whiteSpace=wrap;html=1;fontSize=8;shadow=0;sketch=0;" parent="1" vertex="1">
          <mxGeometry x="164" y="670" width="40" height="40" as="geometry" />
        </mxCell>
        <mxCell id="LZO36vIUFyBDVAd05VLG-284" value="" style="rounded=0;whiteSpace=wrap;html=1;fontSize=8;shadow=0;sketch=0;" parent="1" vertex="1">
          <mxGeometry x="44" y="720" width="40" height="40" as="geometry" />
        </mxCell>
        <mxCell id="LZO36vIUFyBDVAd05VLG-285" value="&lt;span&gt;prev&lt;/span&gt;" style="rounded=0;whiteSpace=wrap;html=1;fontSize=8;shadow=0;sketch=0;" parent="1" vertex="1">
          <mxGeometry x="84" y="710" width="40" height="40" as="geometry" />
        </mxCell>
        <mxCell id="LZO36vIUFyBDVAd05VLG-286" value="&lt;span&gt;play&lt;/span&gt;" style="rounded=0;whiteSpace=wrap;html=1;fontSize=8;shadow=0;sketch=0;" parent="1" vertex="1">
          <mxGeometry x="124" y="700" width="40" height="40" as="geometry" />
        </mxCell>
        <mxCell id="LZO36vIUFyBDVAd05VLG-287" value="&lt;span&gt;next&lt;/span&gt;" style="rounded=0;whiteSpace=wrap;html=1;fontSize=8;shadow=0;sketch=0;" parent="1" vertex="1">
          <mxGeometry x="164" y="710" width="40" height="40" as="geometry" />
        </mxCell>
        <mxCell id="LZO36vIUFyBDVAd05VLG-288" value="vs code" style="rounded=0;whiteSpace=wrap;html=1;fontSize=8;shadow=0;sketch=0;" parent="1" vertex="1">
          <mxGeometry x="964" y="710" width="40" height="40" as="geometry" />
        </mxCell>
        <mxCell id="LZO36vIUFyBDVAd05VLG-289" value="sublime" style="rounded=0;whiteSpace=wrap;html=1;fontSize=8;shadow=0;sketch=0;" parent="1" vertex="1">
          <mxGeometry x="1004" y="700" width="40" height="40" as="geometry" />
        </mxCell>
        <mxCell id="LZO36vIUFyBDVAd05VLG-290" value="music" style="rounded=0;whiteSpace=wrap;html=1;fontSize=8;shadow=0;sketch=0;" parent="1" vertex="1">
          <mxGeometry x="1044" y="710" width="40" height="40" as="geometry" />
        </mxCell>
        <mxCell id="LZO36vIUFyBDVAd05VLG-291" value="" style="rounded=0;whiteSpace=wrap;html=1;fontSize=8;shadow=0;sketch=0;" parent="1" vertex="1">
          <mxGeometry x="1084" y="720" width="40" height="40" as="geometry" />
        </mxCell>
        <mxCell id="LZO36vIUFyBDVAd05VLG-292" value="&lt;span style=&quot;font-size: 18px&quot;&gt;.&lt;/span&gt;" style="rounded=0;whiteSpace=wrap;html=1;fontSize=8;shadow=0;sketch=0;" parent="1" vertex="1">
          <mxGeometry x="964" y="247" width="40" height="40" as="geometry" />
        </mxCell>
        <mxCell id="LZO36vIUFyBDVAd05VLG-293" value="&lt;span style=&quot;font-size: 16px&quot;&gt;,&lt;/span&gt;" style="rounded=0;whiteSpace=wrap;html=1;fontSize=8;shadow=0;sketch=0;" parent="1" vertex="1">
          <mxGeometry x="964" y="287" width="40" height="40" as="geometry" />
        </mxCell>
        <mxCell id="LZO36vIUFyBDVAd05VLG-296" value="&lt;span style=&quot;font-size: 18px&quot;&gt;^&lt;/span&gt;" style="rounded=0;whiteSpace=wrap;html=1;fontSize=8;shadow=0;sketch=0;" parent="1" vertex="1">
          <mxGeometry x="844" y="217" width="40" height="40" as="geometry" />
        </mxCell>
        <mxCell id="LZO36vIUFyBDVAd05VLG-297" value="&lt;span style=&quot;font-size: 16px&quot;&gt;8&lt;/span&gt;" style="rounded=0;whiteSpace=wrap;html=1;fontSize=8;shadow=0;sketch=0;" parent="1" vertex="1">
          <mxGeometry x="364" y="413" width="40" height="40" as="geometry" />
        </mxCell>
        <mxCell id="LZO36vIUFyBDVAd05VLG-298" value="&lt;span style=&quot;font-size: 16px&quot;&gt;9&lt;/span&gt;" style="rounded=0;whiteSpace=wrap;html=1;fontSize=8;shadow=0;sketch=0;" parent="1" vertex="1">
          <mxGeometry x="404" y="418" width="40" height="40" as="geometry" />
        </mxCell>
        <mxCell id="LZO36vIUFyBDVAd05VLG-299" value="&lt;span style=&quot;font-size: 18px&quot;&gt;/&lt;/span&gt;" style="rounded=0;whiteSpace=wrap;html=1;fontSize=8;shadow=0;sketch=0;" parent="1" vertex="1">
          <mxGeometry x="284" y="468" width="40" height="40" as="geometry" />
        </mxCell>
        <mxCell id="LZO36vIUFyBDVAd05VLG-326" value="&lt;span style=&quot;font-size: 16px&quot;&gt;4&lt;/span&gt;" style="rounded=0;whiteSpace=wrap;html=1;fontSize=18;shadow=0;sketch=0;" parent="1" vertex="1">
          <mxGeometry x="324" y="458" width="40" height="40" as="geometry" />
        </mxCell>
        <mxCell id="YUrG1fNYPNurHaSCUAvW-4" value="X" style="rounded=0;whiteSpace=wrap;html=1;fontSize=16;shadow=0;sketch=0;" parent="1" vertex="1">
          <mxGeometry x="684" y="93" width="40" height="40" as="geometry" />
        </mxCell>
        <mxCell id="YUrG1fNYPNurHaSCUAvW-5" value="Y" style="rounded=0;whiteSpace=wrap;html=1;fontSize=16;shadow=0;sketch=0;" parent="1" vertex="1">
          <mxGeometry x="764" y="113" width="40" height="40" as="geometry" />
        </mxCell>
        <mxCell id="YUrG1fNYPNurHaSCUAvW-6" value="K" style="rounded=0;whiteSpace=wrap;html=1;fontSize=16;shadow=0;sketch=0;" parent="1" vertex="1">
          <mxGeometry x="724" y="103" width="40" height="40" as="geometry" />
        </mxCell>
        <mxCell id="YUrG1fNYPNurHaSCUAvW-7" value="" style="rounded=0;whiteSpace=wrap;html=1;fontSize=8;shadow=0;sketch=0;" parent="1" vertex="1">
          <mxGeometry x="684" y="640" width="40" height="40" as="geometry" />
        </mxCell>
        <mxCell id="YUrG1fNYPNurHaSCUAvW-8" value="generate" style="rounded=0;whiteSpace=wrap;html=1;fontSize=8;shadow=0;sketch=0;" parent="1" vertex="1">
          <mxGeometry x="844" y="680" width="40" height="40" as="geometry" />
        </mxCell>
        <mxCell id="YUrG1fNYPNurHaSCUAvW-9" value="" style="rounded=0;whiteSpace=wrap;html=1;fontSize=8;shadow=0;sketch=0;" parent="1" vertex="1">
          <mxGeometry x="844" y="640" width="40" height="40" as="geometry" />
        </mxCell>
        <mxCell id="YUrG1fNYPNurHaSCUAvW-10" value="" style="rounded=0;whiteSpace=wrap;html=1;fontSize=8;shadow=0;sketch=0;" parent="1" vertex="1">
          <mxGeometry x="684" y="680" width="40" height="40" as="geometry" />
        </mxCell>
        <mxCell id="YUrG1fNYPNurHaSCUAvW-11" value="back" style="rounded=0;whiteSpace=wrap;html=1;fontSize=8;shadow=0;sketch=0;" parent="1" vertex="1">
          <mxGeometry x="724" y="670" width="40" height="40" as="geometry" />
        </mxCell>
        <mxCell id="YUrG1fNYPNurHaSCUAvW-12" value="forward" style="rounded=0;whiteSpace=wrap;html=1;fontSize=8;shadow=0;sketch=0;" parent="1" vertex="1">
          <mxGeometry x="764" y="660" width="40" height="40" as="geometry" />
        </mxCell>
        <mxCell id="YUrG1fNYPNurHaSCUAvW-13" value="def" style="rounded=0;whiteSpace=wrap;html=1;fontSize=8;shadow=0;sketch=0;" parent="1" vertex="1">
          <mxGeometry x="804" y="670" width="40" height="40" as="geometry" />
        </mxCell>
        <mxCell id="YUrG1fNYPNurHaSCUAvW-14" value="blame" style="rounded=0;whiteSpace=wrap;html=1;fontSize=8;shadow=0;sketch=0;" parent="1" vertex="1">
          <mxGeometry x="844" y="720" width="40" height="40" as="geometry" />
        </mxCell>
        <mxCell id="YUrG1fNYPNurHaSCUAvW-15" value="prev error" style="rounded=0;whiteSpace=wrap;html=1;fontSize=8;shadow=0;sketch=0;" parent="1" vertex="1">
          <mxGeometry x="724" y="630" width="40" height="40" as="geometry" />
        </mxCell>
        <mxCell id="YUrG1fNYPNurHaSCUAvW-16" value="navigate" style="rounded=0;whiteSpace=wrap;html=1;fontSize=8;shadow=0;sketch=0;" parent="1" vertex="1">
          <mxGeometry x="804" y="630" width="40" height="40" as="geometry" />
        </mxCell>
        <mxCell id="YUrG1fNYPNurHaSCUAvW-17" value="next error" style="rounded=0;whiteSpace=wrap;html=1;fontSize=8;shadow=0;sketch=0;" parent="1" vertex="1">
          <mxGeometry x="764" y="620" width="40" height="40" as="geometry" />
        </mxCell>
        <mxCell id="YUrG1fNYPNurHaSCUAvW-18" value="" style="rounded=0;whiteSpace=wrap;html=1;fontSize=8;shadow=0;sketch=0;" parent="1" vertex="1">
          <mxGeometry x="684" y="720" width="40" height="40" as="geometry" />
        </mxCell>
        <mxCell id="YUrG1fNYPNurHaSCUAvW-19" value="" style="rounded=0;whiteSpace=wrap;html=1;fontSize=8;shadow=0;sketch=0;" parent="1" vertex="1">
          <mxGeometry x="724" y="710" width="40" height="40" as="geometry" />
        </mxCell>
        <mxCell id="YUrG1fNYPNurHaSCUAvW-20" value="" style="rounded=0;whiteSpace=wrap;html=1;fontSize=8;shadow=0;sketch=0;" parent="1" vertex="1">
          <mxGeometry x="764" y="700" width="40" height="40" as="geometry" />
        </mxCell>
        <mxCell id="YUrG1fNYPNurHaSCUAvW-21" value="impl" style="rounded=0;whiteSpace=wrap;html=1;fontSize=8;shadow=0;sketch=0;" parent="1" vertex="1">
          <mxGeometry x="804" y="710" width="40" height="40" as="geometry" />
        </mxCell>
        <mxCell id="M8jas_YJv2-ZbS1_3m-B-7" value="&lt;font style=&quot;font-size: 18px&quot;&gt;34 KEYS OF BLISS&lt;/font&gt;" style="rounded=0;whiteSpace=wrap;html=1;fontSize=12;dashed=1;align=left;verticalAlign=top;fontStyle=1;strokeColor=none;shadow=0;sketch=0;" parent="1" vertex="1">
          <mxGeometry x="76" y="33" width="168" height="40" as="geometry" />
        </mxCell>
        <mxCell id="LZO36vIUFyBDVAd05VLG-206" value="NUM" style="rounded=0;whiteSpace=wrap;html=1;fontSize=8;fillColor=#d5e8d4;shadow=0;sketch=0;" parent="1" vertex="1">
          <mxGeometry x="204" y="408" width="120" height="20" as="geometry" />
        </mxCell>
        <mxCell id="-0DxkVU9jYR1wWTH4TOA-5" value="" style="rounded=0;whiteSpace=wrap;html=1;fontSize=18;shadow=0;sketch=0;" parent="1" vertex="1">
          <mxGeometry x="964" y="498.5" width="40" height="40" as="geometry" />
        </mxCell>
        <mxCell id="-0DxkVU9jYR1wWTH4TOA-6" value="" style="rounded=0;whiteSpace=wrap;html=1;fontSize=18;shadow=0;sketch=0;" parent="1" vertex="1">
          <mxGeometry x="1004" y="494" width="40" height="40" as="geometry" />
        </mxCell>
        <mxCell id="-0DxkVU9jYR1wWTH4TOA-7" value="" style="rounded=0;whiteSpace=wrap;html=1;fontSize=18;shadow=0;sketch=0;" parent="1" vertex="1">
          <mxGeometry x="1044" y="499" width="40" height="40" as="geometry" />
        </mxCell>
        <mxCell id="-0DxkVU9jYR1wWTH4TOA-8" value="" style="rounded=0;whiteSpace=wrap;html=1;fontSize=18;shadow=0;sketch=0;" parent="1" vertex="1">
          <mxGeometry x="1084" y="508" width="40" height="40" as="geometry" />
        </mxCell>
        <mxCell id="-0DxkVU9jYR1wWTH4TOA-9" value="" style="rounded=0;whiteSpace=wrap;html=1;fontSize=18;shadow=0;sketch=0;" parent="1" vertex="1">
          <mxGeometry x="924" y="508" width="40" height="40" as="geometry" />
        </mxCell>
        <mxCell id="-0DxkVU9jYR1wWTH4TOA-11" value="" style="rounded=0;whiteSpace=wrap;html=1;fontSize=18;shadow=0;sketch=0;" parent="1" vertex="1">
          <mxGeometry x="954" y="552" width="40" height="40" as="geometry" />
        </mxCell>
        <mxCell id="-0DxkVU9jYR1wWTH4TOA-12" value="&lt;span style=&quot;font-size: 8px&quot;&gt;&amp;nbsp;&lt;/span&gt;&lt;span&gt;X&lt;/span&gt;" style="rounded=0;whiteSpace=wrap;html=1;fontSize=20;shadow=0;sketch=0;" parent="1" vertex="1">
          <mxGeometry x="914" y="562" width="40" height="40" as="geometry" />
        </mxCell>
        <mxCell id="-0DxkVU9jYR1wWTH4TOA-14" value="" style="rounded=0;whiteSpace=wrap;html=1;fontSize=8;shadow=0;sketch=0;" parent="1" vertex="1">
          <mxGeometry x="814" y="552" width="40" height="40" as="geometry" />
        </mxCell>
        <mxCell id="-0DxkVU9jYR1wWTH4TOA-15" value="" style="rounded=0;whiteSpace=wrap;html=1;fontSize=8;shadow=0;sketch=0;" parent="1" vertex="1">
          <mxGeometry x="854" y="562" width="40" height="40" as="geometry" />
        </mxCell>
        <mxCell id="-0DxkVU9jYR1wWTH4TOA-16" value="&lt;span style=&quot;font-size: 14px&quot;&gt;F3&lt;/span&gt;" style="rounded=0;whiteSpace=wrap;html=1;fontSize=18;shadow=0;sketch=0;" parent="1" vertex="1">
          <mxGeometry x="764" y="414" width="40" height="40" as="geometry" />
        </mxCell>
        <mxCell id="-0DxkVU9jYR1wWTH4TOA-17" value="&lt;span style=&quot;font-size: 14px&quot;&gt;F1&lt;/span&gt;" style="rounded=0;whiteSpace=wrap;html=1;fontSize=18;shadow=0;sketch=0;" parent="1" vertex="1">
          <mxGeometry x="684" y="429" width="40" height="40" as="geometry" />
        </mxCell>
        <mxCell id="-0DxkVU9jYR1wWTH4TOA-18" value="&lt;span style=&quot;font-size: 14px&quot;&gt;F4&lt;/span&gt;" style="rounded=0;whiteSpace=wrap;html=1;fontSize=18;shadow=0;sketch=0;" parent="1" vertex="1">
          <mxGeometry x="804" y="419" width="40" height="40" as="geometry" />
        </mxCell>
        <mxCell id="-0DxkVU9jYR1wWTH4TOA-19" value="&lt;span style=&quot;font-size: 14px&quot;&gt;F5&lt;/span&gt;" style="rounded=0;whiteSpace=wrap;html=1;fontSize=18;shadow=0;sketch=0;" parent="1" vertex="1">
          <mxGeometry x="844" y="429" width="40" height="40" as="geometry" />
        </mxCell>
        <mxCell id="-0DxkVU9jYR1wWTH4TOA-20" value="" style="rounded=0;whiteSpace=wrap;html=1;fontSize=18;shadow=0;sketch=0;" parent="1" vertex="1">
          <mxGeometry x="684" y="508" width="40" height="40" as="geometry" />
        </mxCell>
        <mxCell id="-0DxkVU9jYR1wWTH4TOA-21" value="" style="rounded=0;whiteSpace=wrap;html=1;fontSize=18;shadow=0;sketch=0;" parent="1" vertex="1">
          <mxGeometry x="724" y="498" width="40" height="40" as="geometry" />
        </mxCell>
        <mxCell id="-0DxkVU9jYR1wWTH4TOA-22" value="" style="rounded=0;whiteSpace=wrap;html=1;fontSize=18;shadow=0;sketch=0;" parent="1" vertex="1">
          <mxGeometry x="844" y="508" width="40" height="40" as="geometry" />
        </mxCell>
        <mxCell id="-0DxkVU9jYR1wWTH4TOA-23" value="&lt;span style=&quot;font-size: 14px&quot;&gt;F12&lt;/span&gt;" style="rounded=0;whiteSpace=wrap;html=1;fontSize=18;shadow=0;sketch=0;" parent="1" vertex="1">
          <mxGeometry x="804" y="498" width="40" height="40" as="geometry" />
        </mxCell>
        <mxCell id="-0DxkVU9jYR1wWTH4TOA-24" value="&lt;span style=&quot;font-size: 14px&quot;&gt;F11&lt;/span&gt;" style="rounded=0;whiteSpace=wrap;html=1;fontSize=8;shadow=0;sketch=0;" parent="1" vertex="1">
          <mxGeometry x="764" y="488" width="40" height="40" as="geometry" />
        </mxCell>
        <mxCell id="-0DxkVU9jYR1wWTH4TOA-25" value="&lt;span style=&quot;font-size: 14px&quot;&gt;F2&lt;/span&gt;" style="rounded=0;whiteSpace=wrap;html=1;fontSize=8;shadow=0;sketch=0;" parent="1" vertex="1">
          <mxGeometry x="724" y="419" width="40" height="40" as="geometry" />
        </mxCell>
        <mxCell id="-0DxkVU9jYR1wWTH4TOA-27" value="" style="rounded=0;whiteSpace=wrap;html=1;fontSize=18;shadow=0;sketch=0;" parent="1" vertex="1">
          <mxGeometry x="964" y="419" width="40" height="40" as="geometry" />
        </mxCell>
        <mxCell id="-0DxkVU9jYR1wWTH4TOA-29" value="" style="rounded=0;whiteSpace=wrap;html=1;fontSize=18;shadow=0;sketch=0;" parent="1" vertex="1">
          <mxGeometry x="1084" y="429" width="40" height="40" as="geometry" />
        </mxCell>
        <mxCell id="-0DxkVU9jYR1wWTH4TOA-31" value="" style="rounded=0;whiteSpace=wrap;html=1;fontSize=18;shadow=0;sketch=0;" parent="1" vertex="1">
          <mxGeometry x="924" y="429" width="40" height="40" as="geometry" />
        </mxCell>
        <mxCell id="-0DxkVU9jYR1wWTH4TOA-33" value="" style="rounded=0;whiteSpace=wrap;html=1;fontSize=8;shadow=0;sketch=0;" parent="1" vertex="1">
          <mxGeometry x="1004" y="414" width="40" height="40" as="geometry" />
        </mxCell>
        <mxCell id="-0DxkVU9jYR1wWTH4TOA-34" value="" style="rounded=0;whiteSpace=wrap;html=1;fontSize=8;shadow=0;sketch=0;" parent="1" vertex="1">
          <mxGeometry x="1044" y="419" width="40" height="40" as="geometry" />
        </mxCell>
        <mxCell id="-0DxkVU9jYR1wWTH4TOA-35" value="" style="rounded=0;whiteSpace=wrap;html=1;fontSize=8;shadow=0;sketch=0;" parent="1" vertex="1">
          <mxGeometry x="924" y="468.5" width="40" height="40" as="geometry" />
        </mxCell>
        <mxCell id="-0DxkVU9jYR1wWTH4TOA-41" value="FUN" style="rounded=0;whiteSpace=wrap;html=1;fontSize=8;fillColor=#d5e8d4;shadow=0;sketch=0;" parent="1" vertex="1">
          <mxGeometry x="844" y="409" width="120" height="20" as="geometry" />
        </mxCell>
        <mxCell id="aykicEYwcWb6sCXp0r4l-1" value="&lt;span style=&quot;font-size: 14px&quot;&gt;F8&lt;/span&gt;" style="rounded=0;whiteSpace=wrap;html=1;fontSize=18;shadow=0;sketch=0;" parent="1" vertex="1">
          <mxGeometry x="764" y="448.5" width="40" height="40" as="geometry" />
        </mxCell>
        <mxCell id="aykicEYwcWb6sCXp0r4l-2" value="&lt;span style=&quot;font-size: 14px&quot;&gt;F6&lt;/span&gt;" style="rounded=0;whiteSpace=wrap;html=1;fontSize=18;shadow=0;sketch=0;" parent="1" vertex="1">
          <mxGeometry x="684" y="468.5" width="40" height="40" as="geometry" />
        </mxCell>
        <mxCell id="aykicEYwcWb6sCXp0r4l-3" value="&lt;span style=&quot;font-size: 14px&quot;&gt;F9&lt;br&gt;&lt;/span&gt;" style="rounded=0;whiteSpace=wrap;html=1;fontSize=18;shadow=0;sketch=0;" parent="1" vertex="1">
          <mxGeometry x="804" y="458.5" width="40" height="40" as="geometry" />
        </mxCell>
        <mxCell id="aykicEYwcWb6sCXp0r4l-4" value="&lt;span style=&quot;font-size: 14px&quot;&gt;F10&lt;/span&gt;" style="rounded=0;whiteSpace=wrap;html=1;fontSize=18;shadow=0;sketch=0;" parent="1" vertex="1">
          <mxGeometry x="844" y="468.5" width="40" height="40" as="geometry" />
        </mxCell>
        <mxCell id="zKo5GIf6RphVvLEK5HRa-7" value="&lt;span style=&quot;font-size: 16px&quot;&gt;7&lt;/span&gt;" style="rounded=0;whiteSpace=wrap;html=1;fontSize=8;shadow=0;sketch=0;" parent="1" vertex="1">
          <mxGeometry x="324" y="418" width="40" height="40" as="geometry" />
        </mxCell>
        <mxCell id="zKo5GIf6RphVvLEK5HRa-8" value="&lt;span style=&quot;font-size: 14px&quot;&gt;F7&lt;/span&gt;" style="rounded=0;whiteSpace=wrap;html=1;fontSize=18;shadow=0;sketch=0;" parent="1" vertex="1">
          <mxGeometry x="724" y="458.5" width="40" height="40" as="geometry" />
        </mxCell>
        <mxCell id="KEgTfrSInyR3nOhdkQfZ-1" value="&lt;span style=&quot;font-size: 18px&quot;&gt;-&lt;/span&gt;" style="rounded=0;whiteSpace=wrap;html=1;fontSize=8;shadow=0;sketch=0;" parent="1" vertex="1">
          <mxGeometry x="124" y="413" width="40" height="40" as="geometry" />
        </mxCell>
        <mxCell id="nM1MZ6SFf8dn1nAXg-mr-38" value="&lt;font style=&quot;font-size: 10px&quot;&gt;created using draw.io&lt;/font&gt;" style="rounded=0;whiteSpace=wrap;html=1;fontSize=10;dashed=1;align=center;verticalAlign=top;fontStyle=1;strokeColor=none;shadow=0;sketch=0;" parent="1" vertex="1">
          <mxGeometry x="500" y="801" width="168" height="22" as="geometry" />
        </mxCell>
        <mxCell id="93zmnljg_b6-9A6qKQXr-3" value="&lt;p style=&quot;line-height: 100%&quot;&gt;E&lt;br&gt;&lt;span style=&quot;font-size: 8px ; line-height: 100%&quot;&gt;CTRL&lt;/span&gt;&lt;br&gt;&lt;/p&gt;" style="rounded=0;whiteSpace=wrap;html=1;fontSize=16;fillColor=#fff2cc;shadow=0;sketch=0;" parent="1" vertex="1">
          <mxGeometry x="684" y="53" width="40" height="40" as="geometry" />
        </mxCell>
        <mxCell id="93zmnljg_b6-9A6qKQXr-4" value="&lt;p style=&quot;line-height: 80%&quot;&gt;O&lt;br&gt;&lt;span style=&quot;font-size: 8px ; line-height: 100%&quot;&gt;ALT&lt;/span&gt;&lt;/p&gt;" style="rounded=0;whiteSpace=wrap;html=1;fontSize=16;fillColor=#fff2cc;shadow=0;sketch=0;" parent="1" vertex="1">
          <mxGeometry x="724" y="63" width="40" height="40" as="geometry" />
        </mxCell>
        <mxCell id="93zmnljg_b6-9A6qKQXr-6" value="TAB" style="rounded=0;whiteSpace=wrap;html=1;fontSize=8;shadow=0;sketch=0;" parent="1" vertex="1">
          <mxGeometry x="164" y="207" width="40" height="40" as="geometry" />
        </mxCell>
        <mxCell id="93zmnljg_b6-9A6qKQXr-7" value="SP" style="rounded=0;whiteSpace=wrap;html=1;fontSize=8;shadow=0;sketch=0;" parent="1" vertex="1">
          <mxGeometry x="124" y="197" width="40" height="40" as="geometry" />
        </mxCell>
        <mxCell id="93zmnljg_b6-9A6qKQXr-8" value="BS" style="rounded=0;whiteSpace=wrap;html=1;fontSize=8;shadow=0;sketch=0;" parent="1" vertex="1">
          <mxGeometry x="84" y="207" width="40" height="40" as="geometry" />
        </mxCell>
        <mxCell id="93zmnljg_b6-9A6qKQXr-9" value="" style="rounded=0;whiteSpace=wrap;html=1;fontSize=8;shadow=0;sketch=0;" parent="1" vertex="1">
          <mxGeometry x="44" y="217" width="40" height="40" as="geometry" />
        </mxCell>
        <mxCell id="93zmnljg_b6-9A6qKQXr-14" value="." style="rounded=0;whiteSpace=wrap;html=1;fontSize=16;shadow=0;sketch=0;" parent="1" vertex="1">
          <mxGeometry x="604" y="73" width="40" height="40" as="geometry" />
        </mxCell>
        <mxCell id="93zmnljg_b6-9A6qKQXr-15" value="P" style="rounded=0;whiteSpace=wrap;html=1;fontSize=16;shadow=0;sketch=0;" parent="1" vertex="1">
          <mxGeometry x="644" y="103" width="40" height="40" as="geometry" />
        </mxCell>
        <mxCell id="Cg2wbslkKcuUpNjyLaXX-9" style="edgeStyle=orthogonalEdgeStyle;rounded=0;orthogonalLoop=1;jettySize=auto;html=1;exitX=0.5;exitY=1;exitDx=0;exitDy=0;entryX=0;entryY=0.5;entryDx=0;entryDy=0;dashed=1;" parent="1" source="LZO36vIUFyBDVAd05VLG-30" target="LZO36vIUFyBDVAd05VLG-129" edge="1">
          <mxGeometry relative="1" as="geometry" />
        </mxCell>
        <mxCell id="n35j8wPYgEAzCpnnmdCA-9" value="LT" style="edgeLabel;html=1;align=center;verticalAlign=middle;resizable=0;points=[];" parent="Cg2wbslkKcuUpNjyLaXX-9" vertex="1" connectable="0">
          <mxGeometry x="-0.2362" y="-1" relative="1" as="geometry">
            <mxPoint as="offset" />
          </mxGeometry>
        </mxCell>
        <mxCell id="Cg2wbslkKcuUpNjyLaXX-11" style="edgeStyle=orthogonalEdgeStyle;rounded=0;orthogonalLoop=1;jettySize=auto;html=1;exitX=0.5;exitY=1;exitDx=0;exitDy=0;entryX=1;entryY=0.5;entryDx=0;entryDy=0;dashed=1;" parent="1" source="YUrG1fNYPNurHaSCUAvW-23" target="LZO36vIUFyBDVAd05VLG-59" edge="1">
          <mxGeometry relative="1" as="geometry" />
        </mxCell>
        <mxCell id="n35j8wPYgEAzCpnnmdCA-6" value="LT" style="edgeLabel;html=1;align=center;verticalAlign=middle;resizable=0;points=[];" parent="Cg2wbslkKcuUpNjyLaXX-11" vertex="1" connectable="0">
          <mxGeometry x="-0.2677" y="-2" relative="1" as="geometry">
            <mxPoint as="offset" />
          </mxGeometry>
        </mxCell>
        <mxCell id="93zmnljg_b6-9A6qKQXr-16" value="&lt;p style=&quot;line-height: 80%&quot;&gt;&lt;font style=&quot;font-size: 8px&quot;&gt;ESC&lt;/font&gt;&lt;br&gt;&lt;font style=&quot;font-size: 8px ; line-height: 100%&quot;&gt;CTRL&lt;/font&gt;&lt;/p&gt;" style="rounded=0;whiteSpace=wrap;html=1;fontSize=16;fillColor=#fff2cc;shadow=0;sketch=0;" parent="1" vertex="1">
          <mxGeometry x="44" y="257" width="40" height="40" as="geometry" />
        </mxCell>
        <mxCell id="93zmnljg_b6-9A6qKQXr-17" value="&lt;p style=&quot;line-height: 80% ; font-size: 8px&quot;&gt;BS&lt;/p&gt;&lt;p style=&quot;line-height: 80% ; font-size: 8px&quot;&gt;&lt;span style=&quot;font-size: 8px ; line-height: 100%&quot;&gt;OPT&lt;/span&gt;&lt;/p&gt;" style="rounded=0;whiteSpace=wrap;html=1;fontSize=16;fillColor=#fff2cc;shadow=0;sketch=0;" parent="1" vertex="1">
          <mxGeometry x="84" y="247" width="40" height="40" as="geometry" />
        </mxCell>
        <mxCell id="93zmnljg_b6-9A6qKQXr-18" value="&lt;p style=&quot;line-height: 100%&quot;&gt;&lt;font style=&quot;font-size: 8px&quot;&gt;SP&lt;/font&gt;&lt;br&gt;&lt;span style=&quot;font-size: 8px ; line-height: 100%&quot;&gt;CMD&lt;/span&gt;&lt;br&gt;&lt;/p&gt;" style="rounded=0;whiteSpace=wrap;html=1;fontSize=16;fillColor=#fff2cc;shadow=0;sketch=0;" parent="1" vertex="1">
          <mxGeometry x="124" y="237" width="40" height="40" as="geometry" />
        </mxCell>
        <mxCell id="93zmnljg_b6-9A6qKQXr-19" value="&lt;p style=&quot;line-height: 100%&quot;&gt;&lt;font style=&quot;font-size: 8px&quot;&gt;ENT&lt;/font&gt;&lt;br&gt;&lt;span style=&quot;font-size: 8px ; line-height: 100%&quot;&gt;SHIFT&lt;/span&gt;&lt;br&gt;&lt;/p&gt;" style="rounded=0;whiteSpace=wrap;html=1;fontSize=16;fillColor=#fff2cc;shadow=0;sketch=0;strokeWidth=1;" parent="1" vertex="1">
          <mxGeometry x="164" y="247" width="40" height="40" as="geometry" />
        </mxCell>
        <mxCell id="93zmnljg_b6-9A6qKQXr-24" value="" style="rounded=0;whiteSpace=wrap;html=1;fontSize=18;shadow=0;sketch=0;" parent="1" vertex="1">
          <mxGeometry x="1044" y="459" width="40" height="40" as="geometry" />
        </mxCell>
        <mxCell id="93zmnljg_b6-9A6qKQXr-25" value="" style="rounded=0;whiteSpace=wrap;html=1;fontSize=18;shadow=0;sketch=0;" parent="1" vertex="1">
          <mxGeometry x="1084" y="469" width="40" height="40" as="geometry" />
        </mxCell>
        <mxCell id="OFvciR_9UQERb0ro3mmv-1" value="" style="rounded=0;whiteSpace=wrap;html=1;fontSize=8;shadow=0;sketch=0;" parent="1" vertex="1">
          <mxGeometry x="44" y="508" width="40" height="40" as="geometry" />
        </mxCell>
        <mxCell id="OFvciR_9UQERb0ro3mmv-2" value="" style="rounded=0;whiteSpace=wrap;html=1;fontSize=8;shadow=0;sketch=0;" parent="1" vertex="1">
          <mxGeometry x="84" y="498" width="40" height="40" as="geometry" />
        </mxCell>
        <mxCell id="OFvciR_9UQERb0ro3mmv-3" value="&lt;span style=&quot;font-size: 18px&quot;&gt;(&lt;/span&gt;" style="rounded=0;whiteSpace=wrap;html=1;fontSize=8;shadow=0;sketch=0;" parent="1" vertex="1">
          <mxGeometry x="124" y="488" width="40" height="40" as="geometry" />
        </mxCell>
        <mxCell id="OFvciR_9UQERb0ro3mmv-4" value="&lt;span style=&quot;font-size: 18px&quot;&gt;)&lt;/span&gt;" style="rounded=0;whiteSpace=wrap;html=1;fontSize=8;shadow=0;sketch=0;" parent="1" vertex="1">
          <mxGeometry x="164" y="498" width="40" height="40" as="geometry" />
        </mxCell>
        <mxCell id="OFvciR_9UQERb0ro3mmv-5" value="&lt;span style=&quot;font-size: 18px&quot;&gt;*&lt;/span&gt;" style="rounded=0;whiteSpace=wrap;html=1;fontSize=8;shadow=0;sketch=0;" parent="1" vertex="1">
          <mxGeometry x="204" y="468" width="40" height="40" as="geometry" />
        </mxCell>
        <mxCell id="OFvciR_9UQERb0ro3mmv-10" value="REDO" style="rounded=0;whiteSpace=wrap;html=1;fontSize=8;shadow=0;sketch=0;" parent="1" vertex="1">
          <mxGeometry x="204" y="297" width="40" height="40" as="geometry" />
        </mxCell>
        <mxCell id="OFvciR_9UQERb0ro3mmv-11" value="" style="rounded=0;whiteSpace=wrap;html=1;fontSize=8;shadow=0;sketch=0;" parent="1" vertex="1">
          <mxGeometry x="204" y="508" width="40" height="40" as="geometry" />
        </mxCell>
        <mxCell id="OFvciR_9UQERb0ro3mmv-12" value="Z" style="rounded=0;whiteSpace=wrap;html=1;fontSize=16;shadow=0;sketch=0;" parent="1" vertex="1">
          <mxGeometry x="524" y="33" width="40" height="40" as="geometry" />
        </mxCell>
        <mxCell id="OFvciR_9UQERb0ro3mmv-14" value="&lt;p style=&quot;line-height: 80%&quot;&gt;&lt;font style=&quot;font-size: 16px&quot;&gt;I&lt;/font&gt;&lt;br&gt;&lt;font style=&quot;font-size: 8px ; line-height: 100%&quot;&gt;SUPER&lt;/font&gt;&lt;/p&gt;" style="rounded=0;whiteSpace=wrap;html=1;fontSize=16;fillColor=#fff2cc;shadow=0;sketch=0;" parent="1" vertex="1">
          <mxGeometry x="764" y="73" width="40" height="40" as="geometry" />
        </mxCell>
        <mxCell id="OFvciR_9UQERb0ro3mmv-16" value="" style="rounded=0;whiteSpace=wrap;html=1;fontSize=8;shadow=0;sketch=0;" parent="1" vertex="1">
          <mxGeometry x="214" y="351" width="40" height="40" as="geometry" />
        </mxCell>
        <mxCell id="OFvciR_9UQERb0ro3mmv-21" value="W" style="rounded=0;whiteSpace=wrap;html=1;fontSize=16;shadow=0;sketch=0;" parent="1" vertex="1">
          <mxGeometry x="364" y="33" width="40" height="40" as="geometry" />
        </mxCell>
        <mxCell id="OFvciR_9UQERb0ro3mmv-25" value="&amp;nbsp;&lt;span style=&quot;font-size: 20px&quot;&gt;X&lt;/span&gt;" style="rounded=0;whiteSpace=wrap;html=1;fontSize=8;shadow=0;sketch=0;" parent="1" vertex="1">
          <mxGeometry x="174" y="341" width="40" height="40" as="geometry" />
        </mxCell>
        <mxCell id="OFvciR_9UQERb0ro3mmv-26" value="&lt;span style=&quot;font-size: 10px&quot;&gt;TAB&lt;/span&gt;" style="rounded=0;whiteSpace=wrap;html=1;fontSize=8;shadow=0;sketch=0;" parent="1" vertex="1">
          <mxGeometry x="314" y="341" width="40" height="40" as="geometry" />
        </mxCell>
        <mxCell id="OFvciR_9UQERb0ro3mmv-27" value="R" style="rounded=0;whiteSpace=wrap;html=1;fontSize=16;shadow=0;sketch=0;" parent="1" vertex="1">
          <mxGeometry x="444" y="13" width="40" height="40" as="geometry" />
        </mxCell>
        <mxCell id="OFvciR_9UQERb0ro3mmv-28" value="" style="rounded=0;whiteSpace=wrap;html=1;fontSize=8;shadow=0;sketch=0;" parent="1" vertex="1">
          <mxGeometry x="44" y="468" width="40" height="40" as="geometry" />
        </mxCell>
        <mxCell id="93zmnljg_b6-9A6qKQXr-1" value="&lt;p style=&quot;line-height: 100%&quot;&gt;T&lt;br&gt;&lt;span style=&quot;font-size: 8px ; line-height: 100%&quot;&gt;SHIFT&lt;/span&gt;&lt;br&gt;&lt;/p&gt;" style="rounded=0;whiteSpace=wrap;html=1;fontSize=16;fillColor=#fff2cc;shadow=0;sketch=0;strokeWidth=1;" parent="1" vertex="1">
          <mxGeometry x="484" y="63" width="40" height="40" as="geometry" />
        </mxCell>
        <mxCell id="93zmnljg_b6-9A6qKQXr-2" value="&lt;p style=&quot;line-height: 100%&quot;&gt;A&lt;br&gt;&lt;span style=&quot;font-size: 8px ; line-height: 100%&quot;&gt;SHIFT&lt;/span&gt;&lt;br&gt;&lt;/p&gt;" style="rounded=0;whiteSpace=wrap;html=1;fontSize=16;fillColor=#fff2cc;shadow=0;sketch=0;strokeWidth=1;" parent="1" vertex="1">
          <mxGeometry x="644" y="63" width="40" height="40" as="geometry" />
        </mxCell>
        <mxCell id="Cg2wbslkKcuUpNjyLaXX-2" value="D" style="rounded=0;whiteSpace=wrap;html=1;fontSize=16;shadow=0;sketch=0;" parent="1" vertex="1">
          <mxGeometry x="724" y="23" width="40" height="40" as="geometry" />
        </mxCell>
        <mxCell id="Cg2wbslkKcuUpNjyLaXX-8" style="edgeStyle=orthogonalEdgeStyle;rounded=0;orthogonalLoop=1;jettySize=auto;html=1;exitX=0.5;exitY=1;exitDx=0;exitDy=0;entryX=1;entryY=0.5;entryDx=0;entryDy=0;" parent="1" source="Cg2wbslkKcuUpNjyLaXX-3" target="LZO36vIUFyBDVAd05VLG-137" edge="1">
          <mxGeometry relative="1" as="geometry" />
        </mxCell>
        <mxCell id="n35j8wPYgEAzCpnnmdCA-7" value="MO" style="edgeLabel;html=1;align=center;verticalAlign=middle;resizable=0;points=[];" parent="Cg2wbslkKcuUpNjyLaXX-8" vertex="1" connectable="0">
          <mxGeometry x="-0.5711" relative="1" as="geometry">
            <mxPoint as="offset" />
          </mxGeometry>
        </mxCell>
        <mxCell id="Cg2wbslkKcuUpNjyLaXX-3" value="&lt;font style=&quot;font-size: 16px&quot;&gt;&lt;span&gt;⏎&lt;/span&gt;&lt;/font&gt;&lt;span style=&quot;color: rgb(51 , 51 , 51)&quot;&gt;&lt;span style=&quot;font-size: 10px&quot;&gt; &lt;/span&gt;&lt;span style=&quot;font-weight: normal ; line-height: 200%&quot;&gt;&lt;/span&gt;&lt;br&gt;&lt;/span&gt;&lt;span style=&quot;font-weight: normal&quot;&gt;MEDIA&lt;/span&gt;" style="rounded=0;whiteSpace=wrap;html=1;fontSize=8;fillColor=#d5e8d4;fontStyle=1;shadow=0;sketch=0;strokeWidth=1;" parent="1" vertex="1">
          <mxGeometry x="534" y="165" width="40" height="40" as="geometry" />
        </mxCell>
        <mxCell id="Cg2wbslkKcuUpNjyLaXX-10" style="edgeStyle=orthogonalEdgeStyle;rounded=0;orthogonalLoop=1;jettySize=auto;html=1;exitX=0.5;exitY=1;exitDx=0;exitDy=0;entryX=0;entryY=0.5;entryDx=0;entryDy=0;" parent="1" source="Cg2wbslkKcuUpNjyLaXX-4" target="aykicEYwcWb6sCXp0r4l-2" edge="1">
          <mxGeometry relative="1" as="geometry" />
        </mxCell>
        <mxCell id="n35j8wPYgEAzCpnnmdCA-8" value="MO" style="edgeLabel;html=1;align=center;verticalAlign=middle;resizable=0;points=[];" parent="Cg2wbslkKcuUpNjyLaXX-10" vertex="1" connectable="0">
          <mxGeometry x="-0.5619" relative="1" as="geometry">
            <mxPoint as="offset" />
          </mxGeometry>
        </mxCell>
        <mxCell id="Cg2wbslkKcuUpNjyLaXX-4" value="&lt;font style=&quot;font-size: 16px&quot;&gt;␣&lt;/font&gt;&lt;span style=&quot;color: rgb(51 , 51 , 51)&quot;&gt;&lt;span style=&quot;font-size: 10px&quot;&gt; &lt;/span&gt;&lt;br&gt;&lt;span style=&quot;font-weight: normal ; line-height: 200%&quot;&gt;NUM&lt;/span&gt;&lt;/span&gt;" style="rounded=0;whiteSpace=wrap;html=1;fontSize=8;fillColor=#d5e8d4;fontStyle=1;shadow=0;sketch=0;strokeWidth=1;" parent="1" vertex="1">
          <mxGeometry x="594" y="165" width="40" height="40" as="geometry" />
        </mxCell>
        <mxCell id="Cg2wbslkKcuUpNjyLaXX-6" value="J" style="rounded=0;whiteSpace=wrap;html=1;fontSize=16;shadow=0;sketch=0;" parent="1" vertex="1">
          <mxGeometry x="764" y="33" width="40" height="40" as="geometry" />
        </mxCell>
        <mxCell id="YUrG1fNYPNurHaSCUAvW-23" value="&lt;span style=&quot;color: rgb(51 , 51 , 51)&quot;&gt;&lt;font style=&quot;font-size: 16px&quot;&gt;⇄&lt;/font&gt;&lt;br&gt;&lt;span style=&quot;font-weight: normal ; line-height: 200%&quot;&gt;NAV&lt;/span&gt;&lt;br&gt;&lt;/span&gt;" style="rounded=0;whiteSpace=wrap;html=1;fontSize=8;fillColor=#d5e8d4;fontStyle=1;shadow=0;sketch=0;strokeWidth=1;" parent="1" vertex="1">
          <mxGeometry x="494" y="157" width="40" height="40" as="geometry" />
        </mxCell>
        <mxCell id="LZO36vIUFyBDVAd05VLG-30" value="&lt;font size=&quot;1&quot;&gt;&lt;span style=&quot;font-size: 16px&quot;&gt;⌫&lt;/span&gt;&lt;/font&gt;&lt;br&gt;&lt;span style=&quot;font-weight: normal ; line-height: 200%&quot;&gt;SYM&lt;/span&gt;" style="rounded=0;whiteSpace=wrap;html=1;fontSize=8;fillColor=#d5e8d4;fontStyle=1;shadow=0;sketch=0;strokeWidth=1;" parent="1" vertex="1">
          <mxGeometry x="634" y="157" width="40" height="40" as="geometry" />
        </mxCell>
        <mxCell id="Cg2wbslkKcuUpNjyLaXX-18" value="" style="html=1;verticalLabelPosition=bottom;labelBackgroundColor=#ffffff;verticalAlign=top;shadow=0;dashed=0;strokeWidth=3;shape=mxgraph.ios7.misc.up;fontSize=18;fillColor=#000000;" parent="1" vertex="1">
          <mxGeometry x="374" y="212" width="20" height="10" as="geometry" />
        </mxCell>
        <mxCell id="Cg2wbslkKcuUpNjyLaXX-23" value="" style="html=1;verticalLabelPosition=bottom;labelBackgroundColor=#ffffff;verticalAlign=top;shadow=0;dashed=0;strokeWidth=3;shape=mxgraph.ios7.misc.down;fontSize=18;fillColor=#000000;" parent="1" vertex="1">
          <mxGeometry x="374" y="252" width="20" height="10" as="geometry" />
        </mxCell>
        <mxCell id="Cg2wbslkKcuUpNjyLaXX-24" value="" style="html=1;verticalLabelPosition=bottom;labelBackgroundColor=#ffffff;verticalAlign=top;shadow=0;dashed=0;strokeWidth=3;shape=mxgraph.ios7.misc.left;fontSize=18;fillColor=#000000;" parent="1" vertex="1">
          <mxGeometry x="339" y="257" width="10" height="20" as="geometry" />
        </mxCell>
        <mxCell id="Cg2wbslkKcuUpNjyLaXX-25" value="" style="html=1;verticalLabelPosition=bottom;labelBackgroundColor=#ffffff;verticalAlign=top;shadow=0;dashed=0;strokeWidth=3;shape=mxgraph.ios7.misc.right;fontSize=18;fillColor=#000000;" parent="1" vertex="1">
          <mxGeometry x="419" y="257" width="10" height="20" as="geometry" />
        </mxCell>
        <mxCell id="n35j8wPYgEAzCpnnmdCA-1" value="&lt;p style=&quot;line-height: 80%&quot;&gt;&lt;br&gt;&lt;span style=&quot;font-size: 8px ; line-height: 100%&quot;&gt;WIN&lt;/span&gt;&lt;/p&gt;" style="rounded=0;whiteSpace=wrap;html=1;fontSize=16;fillColor=#e1d5e7;shadow=0;sketch=0;" parent="1" vertex="1">
          <mxGeometry x="124" y="453" width="40" height="40" as="geometry" />
        </mxCell>
        <mxCell id="n35j8wPYgEAzCpnnmdCA-2" value="&lt;p style=&quot;line-height: 80%&quot;&gt;&lt;br&gt;&lt;span style=&quot;font-size: 8px&quot;&gt;APP&lt;/span&gt;&lt;/p&gt;" style="rounded=0;whiteSpace=wrap;html=1;fontSize=16;fillColor=#e1d5e7;shadow=0;sketch=0;" parent="1" vertex="1">
          <mxGeometry x="164" y="458" width="40" height="40" as="geometry" />
        </mxCell>
        <mxCell id="n35j8wPYgEAzCpnnmdCA-3" value="" style="rounded=0;whiteSpace=wrap;html=1;fontSize=8;shadow=0;sketch=0;" parent="1" vertex="1">
          <mxGeometry x="84" y="458" width="40" height="40" as="geometry" />
        </mxCell>
        <mxCell id="n35j8wPYgEAzCpnnmdCA-4" value="&lt;p style=&quot;line-height: 80%&quot;&gt;&lt;br&gt;&lt;span style=&quot;font-size: 8px&quot;&gt;DEV&lt;/span&gt;&lt;/p&gt;" style="rounded=0;whiteSpace=wrap;html=1;fontSize=16;fillColor=#e1d5e7;shadow=0;sketch=0;" parent="1" vertex="1">
          <mxGeometry x="964" y="459" width="40" height="40" as="geometry" />
        </mxCell>
        <mxCell id="n35j8wPYgEAzCpnnmdCA-5" value="&lt;p style=&quot;line-height: 80%&quot;&gt;&lt;br&gt;&lt;span style=&quot;font-size: 8px ; line-height: 100%&quot;&gt;MED&lt;/span&gt;&lt;/p&gt;" style="rounded=0;whiteSpace=wrap;html=1;fontSize=16;fillColor=#e1d5e7;shadow=0;sketch=0;" parent="1" vertex="1">
          <mxGeometry x="1004" y="454" width="40" height="40" as="geometry" />
        </mxCell>
        <mxCell id="n35j8wPYgEAzCpnnmdCA-10" value="&lt;p style=&quot;line-height: 80%&quot;&gt;&lt;br&gt;&lt;span style=&quot;font-size: 8px&quot;&gt;MOU&lt;/span&gt;&lt;/p&gt;" style="rounded=0;whiteSpace=wrap;html=1;fontSize=16;fillColor=#e1d5e7;shadow=0;sketch=0;" parent="1" vertex="1">
          <mxGeometry x="44" y="428" width="40" height="40" as="geometry" />
        </mxCell>
      </root>
    </mxGraphModel>
  </diagram>
</mxfile>
